<?xml version="1.0" encoding="utf-8"?>
<!-- Generator: Adobe Illustrator 16.0.0, SVG Export Plug-In . SVG Version: 6.00 Build 0)  -->
<!DOCTYPE svg PUBLIC "-//W3C//DTD SVG 1.1//EN" "http://www.w3.org/Graphics/SVG/1.1/DTD/svg11.dtd">
<svg version="1.1" id="Layer_1" xmlns="http://www.w3.org/2000/svg" xmlns:xlink="http://www.w3.org/1999/xlink" x="0px" y="0px"
	 width="512px" height="512px" viewBox="0 0 512 512" enable-background="new 0 0 512 512" xml:space="preserve">
<title></title>
<g id="icomoon-ignore">
</g>
<path fill="#065A9A" d="M256,16C123.452,16,16,123.452,16,256s107.452,240,240,240c132.549,0,240-107.451,240-240S388.549,16,256,16
	z M256,448c-106.039,0-192-85.961-192-192S149.961,64,256,64c106.038,0,192,85.961,192,192S362.038,448,256,448z M272,240v-64h64
	v-32h-64v-32h-32v32h-64v128h64v64h-64v32h64v32h32v-32h64.001L336,240H272z M240,240h-32v-64h32V240z M304.001,336H272v-64h32.001
	V336z"/>
</svg>
