<?xml version="1.0" encoding="utf-8"?>
<!-- Generator: Adobe Illustrator 16.0.0, SVG Export Plug-In . SVG Version: 6.00 Build 0)  -->
<!DOCTYPE svg PUBLIC "-//W3C//DTD SVG 1.1//EN" "http://www.w3.org/Graphics/SVG/1.1/DTD/svg11.dtd">
<svg version="1.1" id="Layer_1" xmlns="http://www.w3.org/2000/svg" xmlns:xlink="http://www.w3.org/1999/xlink" x="0px" y="0px"
	 width="512px" height="512px" viewBox="0 0 512 512" enable-background="new 0 0 512 512" xml:space="preserve">
<title></title>
<g id="icomoon-ignore">
</g>
<path fill="#065A9A" d="M256,16C123.452,16,16,123.452,16,256s107.452,240,240,240c132.549,0,240-107.451,240-240S388.549,16,256,16
	z M391.795,336c4.29-20.227,6.998-41.695,7.879-64h63.723c-1.668,22.098-6.812,43.557-15.34,64H391.795z M120.205,176
	c-4.29,20.227-6.998,41.696-7.879,64H48.604c1.668-22.097,6.812-43.557,15.339-64H120.205z M359.018,176
	c4.807,20.481,7.699,41.927,8.64,64H272v-64H359.018L359.018,176z M272,144V50.331c7.295,2.123,14.521,5.685,21.613,10.685
	c13.291,9.37,26.006,23.804,36.771,41.743c7.44,12.401,13.876,26.208,19.248,41.242L272,144L272,144z M181.616,102.758
	c10.764-17.939,23.478-32.374,36.77-41.743c7.091-5,14.319-8.562,21.614-10.685V144h-77.632
	C167.741,128.967,174.176,115.16,181.616,102.758z M240,176v64h-95.657c0.94-22.073,3.833-43.519,8.639-64H240z M63.944,336
	c-8.527-20.443-13.671-41.902-15.339-64h63.723c0.881,22.305,3.589,43.773,7.879,64H63.944z M144.343,272H240v64h-87.019
	C148.176,315.52,145.283,294.073,144.343,272L144.343,272z M240,368v93.67c-7.294-2.123-14.522-5.686-21.614-10.685
	c-13.292-9.37-26.007-23.806-36.77-41.743c-7.441-12.402-13.875-26.209-19.249-41.242H240L240,368z M330.384,409.242
	c-10.765,17.938-23.479,32.373-36.771,41.743c-7.092,4.999-14.318,8.562-21.613,10.685V368h77.633
	C344.26,383.033,337.824,396.84,330.384,409.242z M272,336v-64h95.656c-0.939,22.073-3.833,43.52-8.64,64H272L272,336z M399.674,240
	c-0.881-22.304-3.589-43.773-7.879-64h56.262c8.528,20.443,13.672,41.903,15.34,64H399.674z M431.328,144h-47.949
	c-9.319-29.381-22.188-55.147-37.658-75.714c21.268,10.17,40.529,23.808,57.356,40.636C413.818,119.661,423.259,131.391,431.328,144
	z M108.922,108.922c16.829-16.829,36.09-30.466,57.356-40.636c-15.471,20.567-28.338,46.333-37.657,75.714H80.672
	C88.741,131.391,98.183,119.661,108.922,108.922L108.922,108.922z M80.672,368h47.949c9.319,29.381,22.188,55.147,37.658,75.715
	c-21.268-10.17-40.528-23.808-57.356-40.637C98.183,392.339,88.741,380.609,80.672,368z M403.077,403.078
	c-16.827,16.829-36.09,30.467-57.356,40.637c15.471-20.566,28.339-46.334,37.658-75.715h47.949
	C423.259,380.609,413.818,392.339,403.077,403.078z"/>
</svg>
