<?xml version="1.0" encoding="utf-8"?>
<!-- Generator: Adobe Illustrator 16.0.0, SVG Export Plug-In . SVG Version: 6.00 Build 0)  -->
<!DOCTYPE svg PUBLIC "-//W3C//DTD SVG 1.1//EN" "http://www.w3.org/Graphics/SVG/1.1/DTD/svg11.dtd">
<svg version="1.1" id="Layer_1" xmlns="http://www.w3.org/2000/svg" xmlns:xlink="http://www.w3.org/1999/xlink" x="0px" y="0px"
	 width="512px" height="512px" viewBox="0 0 512 512" enable-background="new 0 0 512 512" xml:space="preserve">
<title></title>
<g id="icomoon-ignore">
</g>
<path fill="#065A9A" d="M160,112c0-53.02,42.98-96,96-96c53.019,0,96,42.98,96,96c0,53.019-42.981,96-96,96
	C202.981,208,160,165.019,160,112z M384.038,240h-17.712l-99.552,202.122L304,256l-48-48l-48,48l37.225,186.122L145.674,240h-17.712
	C64,240,64,282.993,64,336v160h384V336C448,282.993,448,240,384.038,240z"/>
</svg>
